<svg xmlns="http://www.w3.org/2000/svg" viewBox="0 0 42 42">
  <path fill="#F2F2F2" fill-rule="evenodd" d="M20.96 0C9.91 0 .86 8.5 0 19.31l11.28 4.66a5.92 5.92 0 013.68-1.02l5.01-7.26v-.1a7.94 7.94 0 0115.87 0 7.94 7.94 0 01-7.94 7.92h-.17l-7.16 5.09.01.28a5.96 5.96 0 01-11.8 1.17L.73 26.72A21.04 21.04 0 0042 21C42 9.4 32.58 0 20.96 0zm-7.78 31.86L10.6 30.8a4.47 4.47 0 008.15-3.63 4.43 4.43 0 00-5.7-2.47l2.66 1.1a3.28 3.28 0 11-2.53 6.06zM33.2 15.6a5.29 5.29 0 10-10.58.02 5.29 5.29 0 0010.58-.02zm-9.25-.01a3.97 3.97 0 117.94 0 3.97 3.97 0 01-7.94 0z" opacity=".5"/>
</svg>
