<svg height="13" viewBox="0 0 15 13" width="15" xmlns="http://www.w3.org/2000/svg"><g fill-rule="nonzero" fill="none"><path d="M7.134.555c.269-.082.567-.075.84.039.323.195.46.317.552.471h0l5.826 9.807c.154.258.184.552.107.818a1.108 1.108 0 01-.546.663c-.179.096-.381.147-.587.147h0H1.674a1.21 1.21 0 01-.839-.33 1.04 1.04 0 01-.188-1.299h0l5.826-9.806c.151-.254.392-.427.66-.51z" stroke="#FFB83C"/><rect fill="#FFB83C" x="6.75" y="4" width="1.5" height="4" rx=".75"/><circle fill="#FFB83C" cx="7.5" cy="9.75" r="1"/></g></svg>